<svg xmlns="http://www.w3.org/2000/svg" xmlns:xlink="http://www.w3.org/1999/xlink" version="1.1" class="" pagealignment="none" x="0px" y="0px" width="500px" height="500px" viewBox="0 0 500 500" enable-background="new 0 0 500 500" xml:space="preserve" bodybackgroundcolor="rgba(255,255,255,0)"><defs></defs><g type="LAYER" name="workspace" id="workspace" locked="true"></g><g type="LAYER" name="Layer 01" id="Layer 01"><path transform="matrix(1 0 0 1 250.9140767824499 550.7718129268795)" width="225.77696526508254" height="393.765203496229" stroke-width="18" stroke-linecap="round" stroke-linejoin="round" stroke="#271F07" fill="#7A7246" d="M1.1368683772161603e-13,-67.38169422333647 L-225.77696526508242,-138.49694318795963 L-225.77696526508225,-403.24885652098953 L-123.43463895494443,-461.14689771956546 L0,-332.133607556368 L1.1368683772161603e-13,-67.38169422333647 Z "></path><path transform="matrix(1 0 0 1 250.9140767824499 551.1501767957432)" width="225.77696526508282" height="335.8671622976584" stroke-width="18" stroke-linecap="round" stroke-linejoin="round" stroke="#271F07" fill="#5F542D" d="M-5.684341886080801e-13,-67.38169422333112 L225.7769652650818,-138.49694318795423 L225.77696526508225,-403.24885652098953 L0,-332.1336075563681 L-5.684341886080801e-13,-67.38169422333112 Z "></path><path transform="matrix(1 0 0 1 376.34572415193986 217.60352123482807)" width="349.21160422002674" height="177.8831140291437" stroke-width="18" stroke-linecap="round" stroke-linejoin="round" stroke="#271F07" fill="#493B10" d="M100.34531789559253,-69.70220096006821 L-125.43164736948961,1.4130480045533318 L-248.8662863244342,-127.97860602750796 L-26.711354864919713,-176.47006602459038 L100.34531789559253,-69.70220096006821 Z "></path><path transform="matrix(1 0 0 1 166.5186964834561 456.8072541744752)" width="86.33083663915693" height="278.56228159677863" stroke-width="18" stroke-linecap="round" stroke-linejoin="round" stroke="#271F07" fill="#413D27" d="M5.684341886080802e-14,5.684341886080802e-14 L-86.33083663915687,-27.192494742364886 L-85.62290123665537,-278.5622815967786 L5.684341886080802e-14,-254.7239949749918 L5.684341886080802e-14,5.684341886080802e-14 Z "></path></g></svg>